Coordinates
version=1
nRows=9
nColumns=24
inDegrees=yes

Units are S.I. units (second, meters, Newtons, ...)
Angles are in degrees.

endheader
time	pelvis_tilt	pelvis_list	pelvis_rotation	pelvis_tx	pelvis_ty	pelvis_tz	hip_flexion_r	hip_adduction_r	hip_rotation_r	knee_angle_r	ankle_angle_r	subtalar_angle_r	mtp_angle_r	hip_flexion_l	hip_adduction_l	hip_rotation_l	knee_angle_l	ankle_angle_l	subtalar_angle_l	mtp_angle_l	lumbar_extension	lumbar_bending	lumbar_rotation
      5.71000000	      3.14871210	     -0.54201001	     -5.04634048	      1.54691146	      0.78761730	     -0.14329156	    -24.77678563	     -0.04866059	      4.19542485	     -7.84115229	     20.22201177	     10.40387754	      0.00000000	     19.14875072	     -0.41872315	      0.90969463	     -5.86664361	     -3.11374024	    -21.46264357	      0.00000000	    -27.06795795	     -3.54116674	      5.88310884
      5.72000000	      3.32027707	      0.22816308	     -4.90551628	      1.56083949	      0.78758724	     -0.14558644	    -24.92664735	     -0.99485861	      3.82973137	     -9.72065927	     19.10291445	     10.59765177	      0.00000000	     19.72185197	      0.76328995	      1.41174306	     -8.88592970	     -3.79364563	    -22.45070852	      0.00000000	    -27.02381058	     -4.25086600	      5.18831398
      5.73000000	      3.48587337	      0.94424169	     -4.74967102	      1.57491033	      0.78777532	     -0.14787755	    -24.88456089	     -1.84989602	      3.61300110	    -11.95156075	     17.65969330	     10.65692035	      0.00000000	     20.24543510	      1.90541561	      1.76082978	    -11.95225188	     -4.02215242	    -22.95877913	      0.00000000	    -26.92744093	     -4.90766286	      4.55222856
      5.74000000	      3.65525363	      1.55560591	     -4.54010543	      1.58906144	      0.78817156	     -0.15024991	    -24.63182458	     -2.55314218	      3.42581741	    -14.56422814	     15.88549869	     10.69816012	      0.00000000	     20.63940301	      2.96798864	      2.04367329	    -14.86815462	     -3.87478547	    -23.19983364	      0.00000000	    -26.80093464	     -5.39926598	      3.92222928
      5.75000000	      3.71552566	      1.95198631	     -4.28835683	      1.60307357	      0.78868455	     -0.15260101	    -23.96681904	     -2.98046054	      3.27520439	    -17.64447711	     13.75503780	     10.68472045	      0.00000000	     20.99317709	      3.79424998	      2.26196480	    -17.54920815	     -3.15130007	    -22.98640614	      0.00000000	    -26.56621377	     -5.62766805	      3.41860750
      5.76000000	      3.78166702	      2.27235741	     -4.15027835	      1.61700777	      0.78947688	     -0.15464493	    -23.01040885	     -3.31442569	      3.41098220	    -21.11535825	     11.24963262	     10.45427884	      0.00000000	     21.08427198	      4.46032624	      2.25308129	    -19.78722469	     -1.98855634	    -22.49004964	      0.00000000	    -26.31467831	     -5.84181433	      3.02927373
      5.77000000	      3.83798820	      2.53492244	     -4.08558490	      1.63073573	      0.79053747	     -0.15642787	    -21.72130045	     -3.55527531	      3.65605164	    -24.95831488	      8.42629593	     10.08090812	      0.00000000	     20.91422478	      4.99590296	      2.11755659	    -21.51983241	     -0.57938364	    -21.88195973	      0.00000000	    -26.06696877	     -6.04982234	      2.70902159
      5.78000000	      3.83435406	      2.71953948	     -4.12017846	      1.64415558	      0.79175312	     -0.15803685	    -20.03595656	     -3.70876880	      3.90448318	    -29.12414779	      5.38004176	      9.57308214	      0.00000000	     20.55869607	      5.37244228	      1.80085031	    -22.76977875	      1.08098459	    -21.20815001	      0.00000000	    -25.77175254	     -6.18173695	      2.52958971
      5.79000000	      3.82687794	      2.94359478	     -4.22332308	      1.65726026	      0.79319532	     -0.15934763	    -18.08616943	     -3.85098196	      4.19620425	    -33.45126348	      2.18211055	      8.76038254	      0.00000000	     19.95398901	      5.71753591	      1.37227739	    -23.50862568	      2.71705434	    -20.50700361	      0.00000000	    -25.51886667	     -6.42691890	      2.28476285
